<svg version="1.1" xmlns="http://www.w3.org/2000/svg" viewBox="0 0 123.00975909154204 160" width="40" height="40">
  <!-- svg-source:excalidraw -->
  
  <defs>
    <style>
      @font-face {
        font-family: "Virgil";
        src: url("https://excalidraw.com/Virgil.woff2");
      }
      @font-face {
        font-family: "Cascadia";
        src: url("https://excalidraw.com/Cascadia.woff2");
      }
    </style>
  </defs>
  <g stroke-opacity="0.8" fill-opacity="0.8" stroke-linecap="round" transform="translate(28.565314647098603 10) rotate(0 40 70)"><path d="M20 0 M20 0 C34.96 0, 49.91 0, 60 0 M20 0 C31.59 0, 43.19 0, 60 0 M60 0 C73.33 0, 80 6.67, 80 20 M60 0 C73.33 0, 80 6.67, 80 20 M80 20 C80 54.95, 80 89.91, 80 120 M80 20 C80 57.42, 80 94.85, 80 120 M80 120 C80 133.33, 73.33 140, 60 140 M80 120 C80 133.33, 73.33 140, 60 140 M60 140 C49.84 140, 39.68 140, 20 140 M60 140 C50.85 140, 41.7 140, 20 140 M20 140 C6.67 140, 0 133.33, 0 120 M20 140 C6.67 140, 0 133.33, 0 120 M0 120 C0 84.74, 0 49.49, 0 20 M0 120 C0 99.85, 0 79.7, 0 20 M0 20 C0 6.67, 6.67 0, 20 0 M0 20 C0 6.67, 6.67 0, 20 0" stroke="black" stroke-width="4" fill="none"></path></g><g stroke-linecap="round"><g stroke-opacity="0.8" fill-opacity="0.8" transform="translate(108.5653146470986 10) rotate(0 -31.52777777777783 70)"><path d="M0 0 C-10 2.99, -50 -2.99, -60 17.92 C-70 38.82, -70 107.5, -60 125.42 C-50 143.34, -10 146.32, 0 125.42 C10 104.52, 0 20.9, 0 0 M0 0 C-10 2.99, -50 -2.99, -60 17.92 C-70 38.82, -70 107.5, -60 125.42 C-50 143.34, -10 146.32, 0 125.42 C10 104.52, 0 20.9, 0 0" stroke="black" stroke-width="4" fill="none"></path></g></g><g stroke-opacity="0.8" fill-opacity="0.8" stroke-linecap="round" transform="translate(48.5653146470986 70) rotate(0 10 10)"><path d="M20 10 C20 10.58, 19.95 11.17, 19.85 11.74 C19.75 12.31, 19.59 12.88, 19.4 13.42 C19.2 13.96, 18.95 14.5, 18.66 15 C18.37 15.5, 18.03 15.98, 17.66 16.43 C17.29 16.87, 16.87 17.29, 16.43 17.66 C15.98 18.03, 15.5 18.37, 15 18.66 C14.5 18.95, 13.96 19.2, 13.42 19.4 C12.88 19.59, 12.31 19.75, 11.74 19.85 C11.17 19.95, 10.58 20, 10 20 C9.42 20, 8.83 19.95, 8.26 19.85 C7.69 19.75, 7.12 19.59, 6.58 19.4 C6.04 19.2, 5.5 18.95, 5 18.66 C4.5 18.37, 4.02 18.03, 3.57 17.66 C3.13 17.29, 2.71 16.87, 2.34 16.43 C1.97 15.98, 1.63 15.5, 1.34 15 C1.05 14.5, 0.8 13.96, 0.6 13.42 C0.41 12.88, 0.25 12.31, 0.15 11.74 C0.05 11.17, 0 10.58, 0 10 C0 9.42, 0.05 8.83, 0.15 8.26 C0.25 7.69, 0.41 7.12, 0.6 6.58 C0.8 6.04, 1.05 5.5, 1.34 5 C1.63 4.5, 1.97 4.02, 2.34 3.57 C2.71 3.13, 3.13 2.71, 3.57 2.34 C4.02 1.97, 4.5 1.63, 5 1.34 C5.5 1.05, 6.04 0.8, 6.58 0.6 C7.12 0.41, 7.69 0.25, 8.26 0.15 C8.83 0.05, 9.42 0, 10 0 C10.58 0, 11.17 0.05, 11.74 0.15 C12.31 0.25, 12.88 0.41, 13.42 0.6 C13.96 0.8, 14.5 1.05, 15 1.34 C15.5 1.63, 15.98 1.97, 16.43 2.34 C16.87 2.71, 17.29 3.13, 17.66 3.57 C18.03 4.02, 18.37 4.5, 18.66 5 C18.95 5.5, 19.2 6.04, 19.4 6.58 C19.59 7.12, 19.75 7.69, 19.85 8.26 C19.95 8.83, 19.97 9.71, 20 10 C20.03 10.29, 20.03 9.71, 20 10" stroke="black" stroke-width="4" fill="none"></path></g><g stroke-linecap="round"><g stroke-opacity="0.8" fill-opacity="0.8" transform="translate(39.724107803856896 83.90014900545975) rotate(0 -14.862053901928448 3.4418490488915268)"><path d="M0 0 C-4.95 1.15, -24.77 5.74, -29.72 6.88 M0 0 C-4.95 1.15, -24.77 5.74, -29.72 6.88" stroke="black" stroke-width="4" fill="none"></path></g><g stroke-opacity="0.8" fill-opacity="0.8" transform="translate(39.724107803856896 83.90014900545975) rotate(0 -14.862053901928448 3.4418490488915268)"><path d="M-29.72 6.88 L-17.91 -2.36 L-15.05 9.99 L-29.72 6.88" stroke="none" stroke-width="0" fill="black" fill-rule="evenodd"></path><path d="M-29.72 6.88 C-27.03 4.78, -24.34 2.67, -17.91 -2.36 M-29.72 6.88 C-26.45 4.32, -23.18 1.76, -17.91 -2.36 M-17.91 -2.36 C-17.25 0.47, -16.6 3.3, -15.05 9.99 M-17.91 -2.36 C-16.92 1.91, -15.93 6.19, -15.05 9.99 M-15.05 9.99 C-20.48 8.84, -25.91 7.69, -29.72 6.88 M-15.05 9.99 C-19.25 9.1, -23.45 8.21, -29.72 6.88 M-29.72 6.88 C-29.72 6.88, -29.72 6.88, -29.72 6.88 M-29.72 6.88 C-29.72 6.88, -29.72 6.88, -29.72 6.88" stroke="black" stroke-width="4" fill="none"></path></g></g></svg>