<svg version="1.1" xmlns="http://www.w3.org/2000/svg" viewBox="0 0 705.4461669921875 332.2721726553782" width="705.4461669921875" height="332.2721726553782">
  <!-- svg-source:excalidraw -->
  
  <defs>
    <style class="style-fonts">
      @font-face {
        font-family: "Virgil";
        src: url("https://excalidraw.com/Virgil.woff2");
      }
      @font-face {
        font-family: "Cascadia";
        src: url("https://excalidraw.com/Cascadia.woff2");
      }
    </style>
  </defs>
  <rect x="0" y="0" width="705.4461669921875" height="332.2721726553782" fill="transparent"></rect><g stroke-linecap="round" transform="translate(171.73838115873787 10) rotate(0 170.88743209838867 155.65573692321777)"><path d="M341.77 155.66 C341.77 159.53, 341.62 163.42, 341.3 167.29 C340.98 171.15, 340.5 175.02, 339.87 178.86 C339.23 182.69, 338.44 186.51, 337.49 190.29 C336.54 194.07, 335.44 197.83, 334.18 201.54 C332.93 205.24, 331.52 208.91, 329.96 212.52 C328.41 216.13, 326.7 219.7, 324.85 223.19 C323 226.69, 321.01 230.13, 318.88 233.48 C316.75 236.84, 314.48 240.14, 312.08 243.34 C309.68 246.54, 307.15 249.67, 304.49 252.71 C301.84 255.74, 299.05 258.69, 296.16 261.53 C293.26 264.37, 290.24 267.12, 287.12 269.76 C284 272.4, 280.76 274.93, 277.43 277.35 C274.11 279.77, 270.67 282.08, 267.15 284.26 C263.63 286.45, 260.02 288.52, 256.33 290.46 C252.64 292.4, 248.87 294.21, 245.03 295.9 C241.2 297.58, 237.28 299.14, 233.32 300.55 C229.36 301.97, 225.33 303.25, 221.26 304.4 C217.19 305.54, 213.06 306.55, 208.91 307.41 C204.76 308.27, 200.57 309, 196.36 309.57 C192.15 310.15, 187.9 310.59, 183.66 310.88 C179.41 311.17, 175.14 311.31, 170.89 311.31 C166.63 311.31, 162.36 311.17, 158.12 310.88 C153.87 310.59, 149.63 310.15, 145.42 309.57 C141.21 309, 137.01 308.27, 132.86 307.41 C128.71 306.55, 124.59 305.54, 120.52 304.4 C116.45 303.25, 112.42 301.97, 108.46 300.55 C104.49 299.14, 100.58 297.58, 96.74 295.9 C92.91 294.21, 89.13 292.4, 85.44 290.46 C81.76 288.52, 78.14 286.45, 74.62 284.26 C71.11 282.08, 67.67 279.77, 64.34 277.35 C61.01 274.93, 57.77 272.4, 54.65 269.76 C51.53 267.12, 48.51 264.37, 45.62 261.53 C42.72 258.69, 39.94 255.74, 37.28 252.71 C34.63 249.67, 32.09 246.54, 29.69 243.34 C27.3 240.14, 25.02 236.84, 22.89 233.48 C20.77 230.13, 18.77 226.69, 16.92 223.19 C15.08 219.7, 13.37 216.13, 11.81 212.52 C10.26 208.91, 8.85 205.24, 7.59 201.54 C6.34 197.83, 5.23 194.07, 4.28 190.29 C3.34 186.51, 2.54 182.69, 1.91 178.86 C1.27 175.02, 0.8 171.15, 0.48 167.29 C0.16 163.42, 0 159.53, 0 155.66 C0 151.78, 0.16 147.89, 0.48 144.02 C0.8 140.16, 1.27 136.29, 1.91 132.46 C2.54 128.62, 3.34 124.8, 4.28 121.02 C5.23 117.24, 6.34 113.48, 7.59 109.78 C8.85 106.07, 10.26 102.4, 11.81 98.79 C13.37 95.18, 15.08 91.61, 16.92 88.12 C18.77 84.63, 20.77 81.19, 22.89 77.83 C25.02 74.47, 27.3 71.18, 29.69 67.97 C32.09 64.77, 34.63 61.64, 37.28 58.61 C39.94 55.57, 42.72 52.63, 45.62 49.78 C48.51 46.94, 51.53 44.19, 54.65 41.55 C57.77 38.91, 61.01 36.38, 64.34 33.96 C67.67 31.54, 71.11 29.23, 74.62 27.05 C78.14 24.86, 81.76 22.79, 85.44 20.85 C89.13 18.92, 92.91 17.1, 96.74 15.41 C100.58 13.73, 104.49 12.18, 108.46 10.76 C112.42 9.34, 116.45 8.06, 120.52 6.92 C124.59 5.77, 128.71 4.77, 132.86 3.9 C137.01 3.04, 141.21 2.32, 145.42 1.74 C149.63 1.16, 153.87 0.73, 158.12 0.44 C162.36 0.15, 166.63 0, 170.89 0 C175.14 0, 179.41 0.15, 183.66 0.44 C187.9 0.73, 192.15 1.16, 196.36 1.74 C200.57 2.32, 204.76 3.04, 208.91 3.9 C213.06 4.77, 217.19 5.77, 221.26 6.92 C225.33 8.06, 229.36 9.34, 233.32 10.76 C237.28 12.18, 241.2 13.73, 245.03 15.41 C248.87 17.1, 252.64 18.92, 256.33 20.85 C260.02 22.79, 263.63 24.86, 267.15 27.05 C270.67 29.23, 274.11 31.54, 277.43 33.96 C280.76 36.38, 284 38.91, 287.12 41.55 C290.24 44.19, 293.26 46.94, 296.16 49.78 C299.05 52.63, 301.84 55.57, 304.49 58.61 C307.15 61.64, 309.68 64.77, 312.08 67.97 C314.48 71.18, 316.75 74.47, 318.88 77.83 C321.01 81.19, 323 84.63, 324.85 88.12 C326.7 91.61, 328.41 95.18, 329.96 98.79 C331.52 102.4, 332.93 106.07, 334.18 109.78 C335.44 113.48, 336.54 117.24, 337.49 121.02 C338.44 124.8, 339.23 128.62, 339.87 132.46 C340.5 136.29, 340.98 140.16, 341.3 144.02 C341.62 147.89, 341.77 151.78, 341.77 155.66" stroke="black" stroke-width="4" fill="none"></path></g><g stroke-linecap="round" transform="translate(288.01786876860115 113.50242614746094) rotate(0 52.51312255859375 52.54307746887207)"><path d="M105.03 52.54 C105.03 54.83, 104.88 57.13, 104.58 59.4 C104.28 61.67, 103.83 63.93, 103.24 66.14 C102.65 68.35, 101.9 70.54, 101.03 72.65 C100.15 74.76, 99.13 76.83, 97.99 78.81 C96.85 80.79, 95.57 82.72, 94.17 84.53 C92.78 86.34, 91.26 88.08, 89.65 89.7 C88.03 91.31, 86.29 92.84, 84.48 94.23 C82.67 95.62, 80.75 96.9, 78.77 98.05 C76.79 99.19, 74.72 100.21, 72.61 101.09 C70.5 101.96, 68.31 102.7, 66.1 103.3 C63.9 103.89, 61.63 104.34, 59.37 104.64 C57.1 104.94, 54.8 105.09, 52.51 105.09 C50.23 105.09, 47.92 104.94, 45.66 104.64 C43.39 104.34, 41.13 103.89, 38.92 103.3 C36.71 102.7, 34.53 101.96, 32.42 101.09 C30.31 100.21, 28.24 99.19, 26.26 98.05 C24.28 96.9, 22.36 95.62, 20.55 94.23 C18.73 92.84, 17 91.31, 15.38 89.7 C13.77 88.08, 12.24 86.34, 10.85 84.53 C9.46 82.72, 8.18 80.79, 7.04 78.81 C5.89 76.83, 4.87 74.76, 4 72.65 C3.12 70.54, 2.38 68.35, 1.79 66.14 C1.2 63.93, 0.75 61.67, 0.45 59.4 C0.15 57.13, 0 54.83, 0 52.54 C0 50.26, 0.15 47.95, 0.45 45.68 C0.75 43.42, 1.2 41.15, 1.79 38.94 C2.38 36.74, 3.12 34.55, 4 32.44 C4.87 30.32, 5.89 28.25, 7.04 26.27 C8.18 24.29, 9.46 22.37, 10.85 20.56 C12.24 18.74, 13.77 17.01, 15.38 15.39 C17 13.77, 18.73 12.25, 20.55 10.86 C22.36 9.47, 24.28 8.18, 26.26 7.04 C28.24 5.9, 30.31 4.87, 32.42 4 C34.53 3.12, 36.71 2.38, 38.92 1.79 C41.13 1.2, 43.39 0.75, 45.66 0.45 C47.92 0.15, 50.23 0, 52.51 0 C54.8 0, 57.1 0.15, 59.37 0.45 C61.63 0.75, 63.9 1.2, 66.1 1.79 C68.31 2.38, 70.5 3.12, 72.61 4 C74.72 4.87, 76.79 5.9, 78.77 7.04 C80.75 8.18, 82.67 9.47, 84.48 10.86 C86.29 12.25, 88.03 13.77, 89.65 15.39 C91.26 17.01, 92.78 18.74, 94.17 20.56 C95.57 22.37, 96.85 24.29, 97.99 26.27 C99.13 28.25, 100.15 30.32, 101.03 32.44 C101.9 34.55, 102.65 36.74, 103.24 38.94 C103.83 41.15, 104.28 43.42, 104.58 45.68 C104.88 47.95, 104.95 51.4, 105.03 52.54 C105.1 53.69, 105.1 51.4, 105.03 52.54" stroke="none" stroke-width="0" fill="black"></path><path d="M105.03 52.54 C105.03 54.83, 104.88 57.13, 104.58 59.4 C104.28 61.67, 103.83 63.93, 103.24 66.14 C102.65 68.35, 101.9 70.54, 101.03 72.65 C100.15 74.76, 99.13 76.83, 97.99 78.81 C96.85 80.79, 95.57 82.72, 94.17 84.53 C92.78 86.34, 91.26 88.08, 89.65 89.7 C88.03 91.31, 86.29 92.84, 84.48 94.23 C82.67 95.62, 80.75 96.9, 78.77 98.05 C76.79 99.19, 74.72 100.21, 72.61 101.09 C70.5 101.96, 68.31 102.7, 66.1 103.3 C63.9 103.89, 61.63 104.34, 59.37 104.64 C57.1 104.94, 54.8 105.09, 52.51 105.09 C50.23 105.09, 47.92 104.94, 45.66 104.64 C43.39 104.34, 41.13 103.89, 38.92 103.3 C36.71 102.7, 34.53 101.96, 32.42 101.09 C30.31 100.21, 28.24 99.19, 26.26 98.05 C24.28 96.9, 22.36 95.62, 20.55 94.23 C18.73 92.84, 17 91.31, 15.38 89.7 C13.77 88.08, 12.24 86.34, 10.85 84.53 C9.46 82.72, 8.18 80.79, 7.04 78.81 C5.89 76.83, 4.87 74.76, 4 72.65 C3.12 70.54, 2.38 68.35, 1.79 66.14 C1.2 63.93, 0.75 61.67, 0.45 59.4 C0.15 57.13, 0 54.83, 0 52.54 C0 50.26, 0.15 47.95, 0.45 45.68 C0.75 43.42, 1.2 41.15, 1.79 38.94 C2.38 36.74, 3.12 34.55, 4 32.44 C4.87 30.32, 5.89 28.25, 7.04 26.27 C8.18 24.29, 9.46 22.37, 10.85 20.56 C12.24 18.74, 13.77 17.01, 15.38 15.39 C17 13.77, 18.73 12.25, 20.55 10.86 C22.36 9.47, 24.28 8.18, 26.26 7.04 C28.24 5.9, 30.31 4.87, 32.42 4 C34.53 3.12, 36.71 2.38, 38.92 1.79 C41.13 1.2, 43.39 0.75, 45.66 0.45 C47.92 0.15, 50.23 0, 52.51 0 C54.8 0, 57.1 0.15, 59.37 0.45 C61.63 0.75, 63.9 1.2, 66.1 1.79 C68.31 2.38, 70.5 3.12, 72.61 4 C74.72 4.87, 76.79 5.9, 78.77 7.04 C80.75 8.18, 82.67 9.47, 84.48 10.86 C86.29 12.25, 88.03 13.77, 89.65 15.39 C91.26 17.01, 92.78 18.74, 94.17 20.56 C95.57 22.37, 96.85 24.29, 97.99 26.27 C99.13 28.25, 100.15 30.32, 101.03 32.44 C101.9 34.55, 102.65 36.74, 103.24 38.94 C103.83 41.15, 104.28 43.42, 104.58 45.68 C104.88 47.95, 104.95 51.4, 105.03 52.54 C105.1 53.69, 105.1 51.4, 105.03 52.54" stroke="black" stroke-width="4" fill="none"></path></g><g stroke-linecap="round" transform="translate(10 11.213975633893824) rotate(0 342.72308349609375 155.5290985107422)"><path d="M685.45 155.53 C685.45 158.54, 685.25 161.56, 684.87 164.57 C684.48 167.58, 683.9 170.59, 683.13 173.58 C682.36 176.58, 681.39 179.57, 680.24 182.54 C679.09 185.51, 677.74 188.46, 676.21 191.4 C674.68 194.33, 672.95 197.25, 671.05 200.14 C669.14 203.02, 667.05 205.89, 664.78 208.72 C662.51 211.56, 660.05 214.36, 657.42 217.13 C654.79 219.9, 651.97 222.64, 648.99 225.33 C646.01 228.02, 642.85 230.68, 639.53 233.29 C636.21 235.9, 632.71 238.48, 629.06 240.99 C625.41 243.51, 621.6 245.99, 617.63 248.4 C613.66 250.82, 609.53 253.19, 605.26 255.5 C600.99 257.81, 596.57 260.07, 592.01 262.26 C587.45 264.45, 582.75 266.59, 577.91 268.66 C573.08 270.73, 568.11 272.73, 563.02 274.67 C557.93 276.61, 552.71 278.48, 547.38 280.28 C542.05 282.08, 536.6 283.82, 531.05 285.47 C525.5 287.13, 519.84 288.71, 514.08 290.22 C508.33 291.73, 502.47 293.16, 496.54 294.51 C490.6 295.87, 484.57 297.14, 478.47 298.34 C472.37 299.53, 466.18 300.65, 459.94 301.68 C453.7 302.71, 447.38 303.66, 441.02 304.52 C434.65 305.39, 428.22 306.17, 421.76 306.87 C415.3 307.56, 408.78 308.17, 402.24 308.7 C395.69 309.22, 389.11 309.66, 382.51 310.01 C375.91 310.36, 369.28 310.62, 362.65 310.8 C356.02 310.97, 349.37 311.06, 342.72 311.06 C336.08 311.06, 329.43 310.97, 322.8 310.8 C316.16 310.62, 309.53 310.36, 302.94 310.01 C296.34 309.66, 289.75 309.22, 283.21 308.7 C276.67 308.17, 270.15 307.56, 263.69 306.87 C257.22 306.17, 250.79 305.39, 244.43 304.52 C238.07 303.66, 231.75 302.71, 225.5 301.68 C219.26 300.65, 213.08 299.53, 206.98 298.34 C200.88 297.14, 194.85 295.87, 188.91 294.51 C182.97 293.16, 177.11 291.73, 171.36 290.22 C165.61 288.71, 159.94 287.13, 154.39 285.47 C148.84 283.82, 143.39 282.08, 138.06 280.28 C132.73 278.48, 127.51 276.61, 122.42 274.67 C117.34 272.73, 112.36 270.73, 107.53 268.66 C102.7 266.59, 97.99 264.45, 93.44 262.26 C88.88 260.07, 84.45 257.81, 80.18 255.5 C75.91 253.19, 71.78 250.82, 67.82 248.4 C63.85 245.99, 60.03 243.51, 56.38 240.99 C52.73 238.48, 49.24 235.9, 45.92 233.29 C42.59 230.68, 39.44 228.02, 36.45 225.33 C33.47 222.64, 30.66 219.9, 28.03 217.13 C25.4 214.36, 22.94 211.56, 20.67 208.72 C18.4 205.89, 16.3 203.02, 14.4 200.14 C12.49 197.25, 10.77 194.33, 9.24 191.4 C7.71 188.46, 6.36 185.51, 5.21 182.54 C4.05 179.57, 3.09 176.58, 2.32 173.58 C1.55 170.59, 0.97 167.58, 0.58 164.57 C0.19 161.56, 0 158.54, 0 155.53 C0 152.51, 0.19 149.5, 0.58 146.49 C0.97 143.48, 1.55 140.47, 2.32 137.47 C3.09 134.48, 4.05 131.49, 5.21 128.52 C6.36 125.55, 7.71 122.59, 9.24 119.66 C10.77 116.73, 12.49 113.81, 14.4 110.92 C16.3 108.04, 18.4 105.17, 20.67 102.34 C22.94 99.5, 25.4 96.7, 28.03 93.93 C30.66 91.16, 33.47 88.42, 36.45 85.73 C39.44 83.03, 42.59 80.38, 45.92 77.76 C49.24 75.15, 52.73 72.58, 56.38 70.06 C60.03 67.55, 63.85 65.07, 67.82 62.65 C71.78 60.24, 75.91 57.87, 80.18 55.56 C84.45 53.25, 88.88 50.99, 93.44 48.8 C97.99 46.61, 102.7 44.47, 107.53 42.4 C112.36 40.33, 117.34 38.32, 122.42 36.39 C127.51 34.45, 132.73 32.58, 138.06 30.78 C143.39 28.98, 148.84 27.24, 154.39 25.59 C159.94 23.93, 165.61 22.34, 171.36 20.84 C177.11 19.33, 182.97 17.9, 188.91 16.54 C194.85 15.19, 200.88 13.91, 206.98 12.72 C213.08 11.53, 219.26 10.41, 225.5 9.38 C231.75 8.35, 238.07 7.4, 244.43 6.53 C250.79 5.67, 257.22 4.89, 263.69 4.19 C270.15 3.5, 276.67 2.89, 283.21 2.36 C289.75 1.84, 296.34 1.4, 302.94 1.05 C309.53 0.7, 316.16 0.44, 322.8 0.26 C329.43 0.09, 336.08 0, 342.72 0 C349.37 0, 356.02 0.09, 362.65 0.26 C369.28 0.44, 375.91 0.7, 382.51 1.05 C389.11 1.4, 395.69 1.84, 402.24 2.36 C408.78 2.89, 415.3 3.5, 421.76 4.19 C428.22 4.89, 434.65 5.67, 441.02 6.53 C447.38 7.4, 453.7 8.35, 459.94 9.38 C466.18 10.41, 472.37 11.53, 478.47 12.72 C484.57 13.91, 490.6 15.19, 496.54 16.54 C502.47 17.9, 508.33 19.33, 514.08 20.84 C519.84 22.34, 525.5 23.93, 531.05 25.59 C536.6 27.24, 542.05 28.98, 547.38 30.78 C552.71 32.58, 557.93 34.45, 563.02 36.39 C568.11 38.32, 573.08 40.33, 577.91 42.4 C582.75 44.47, 587.45 46.61, 592.01 48.8 C596.57 50.99, 600.99 53.25, 605.26 55.56 C609.53 57.87, 613.66 60.24, 617.63 62.65 C621.6 65.07, 625.41 67.55, 629.06 70.06 C632.71 72.58, 636.21 75.15, 639.53 77.76 C642.85 80.38, 646.01 83.03, 648.99 85.73 C651.97 88.42, 654.79 91.16, 657.42 93.93 C660.05 96.7, 662.51 99.5, 664.78 102.34 C667.05 105.17, 669.14 108.04, 671.05 110.92 C672.95 113.81, 674.68 116.73, 676.21 119.66 C677.74 122.59, 679.09 125.55, 680.24 128.52 C681.39 131.49, 682.36 134.48, 683.13 137.47 C683.9 140.47, 684.48 143.48, 684.87 146.49 C685.25 149.5, 685.45 152.51, 685.45 155.53" stroke="black" stroke-width="4" fill="none"></path></g></svg>